<svg width="88" height="88" viewBox="0 0 88 88" fill="none" xmlns="http://www.w3.org/2000/svg">
<g clip-path="url(#clip0_2037_5033)">
<path d="M88 0H0V88H88V0Z" fill="#00B907"/>
<mask id="path-2-outside-1_2037_5033" maskUnits="userSpaceOnUse" x="16.6561" y="18.634" width="50.5429" height="50.5429" fill="black">
<rect fill="white" x="16.6561" y="18.634" width="50.5429" height="50.5429"/>
<path fill-rule="evenodd" clip-rule="evenodd" d="M57.9344 36.8281C57.6851 36.2655 57.4037 35.7108 57.0894 35.1665C52.2734 26.8249 41.5081 23.9404 33.1665 28.7564C24.8249 33.5724 21.9404 44.3377 26.7564 52.6793C31.5724 61.0208 42.3377 63.9054 50.6793 59.0894C51.3146 58.7225 51.9184 58.3212 52.4894 57.889L44.731 44.4511L57.9344 36.8281ZM53.0743 35.4624C48.8899 29.931 41.0754 28.2346 34.9178 31.7897C28.7602 35.3448 26.3221 42.9605 29.0051 49.3588L53.0743 35.4624Z"/>
</mask>
<path fill-rule="evenodd" clip-rule="evenodd" d="M57.9344 36.8281C57.6851 36.2655 57.4037 35.7108 57.0894 35.1665C52.2734 26.8249 41.5081 23.9404 33.1665 28.7564C24.8249 33.5724 21.9404 44.3377 26.7564 52.6793C31.5724 61.0208 42.3377 63.9054 50.6793 59.0894C51.3146 58.7225 51.9184 58.3212 52.4894 57.889L44.731 44.4511L57.9344 36.8281ZM53.0743 35.4624C48.8899 29.931 41.0754 28.2346 34.9178 31.7897C28.7602 35.3448 26.3221 42.9605 29.0051 49.3588L53.0743 35.4624Z" fill="white"/>
<path d="M47.2899 56.6832C41.4859 59.1342 34.6956 57.3147 30.8947 52.2901L30.6482 52.4766C34.5345 57.6141 41.4759 59.474 47.4102 56.9679L47.2899 56.6832ZM57.9344 36.8281L58.089 37.0958L58.3296 36.9569L58.217 36.7029L57.9344 36.8281ZM52.4894 57.889L52.676 58.1355L52.8936 57.9708L52.7571 57.7345L52.4894 57.889ZM44.731 44.4511L44.5765 44.1834L44.3088 44.3379L44.4634 44.6056L44.731 44.4511ZM53.0743 35.4624L53.2288 35.7301L53.532 35.5551L53.3208 35.2759L53.0743 35.4624ZM29.0051 49.3588L28.72 49.4783L28.8557 49.8019L29.1596 49.6265L29.0051 49.3588ZM58.217 36.7029C57.9633 36.1302 57.6768 35.5658 57.3571 35.0119L56.8217 35.321C57.1305 35.8558 57.407 36.4007 57.6518 36.9533L58.217 36.7029ZM57.3571 35.0119C52.4557 26.5225 41.5014 23.5873 33.012 28.4887L33.3211 29.0241C41.5148 24.2934 52.0911 27.1273 56.8217 35.321L57.3571 35.0119ZM33.012 28.4887C24.5226 33.3901 21.5874 44.3444 26.4887 52.8338L27.0241 52.5247C22.2934 44.331 25.1273 33.7547 33.3211 29.0241L33.012 28.4887ZM26.4887 52.8338C31.3901 61.3232 42.3444 64.2584 50.8338 59.3571L50.5247 58.8217C42.331 63.5523 31.7547 60.7184 27.0241 52.5247L26.4887 52.8338ZM50.8338 59.3571C51.4803 58.9838 52.0947 58.5753 52.676 58.1355L52.3029 57.6425C51.742 58.067 51.149 58.4613 50.5247 58.8217L50.8338 59.3571ZM52.7571 57.7345L44.9987 44.2965L44.4634 44.6056L52.2218 58.0436L52.7571 57.7345ZM44.8856 44.7188L58.089 37.0958L57.7799 36.5604L44.5765 44.1834L44.8856 44.7188ZM35.0723 32.0574C41.093 28.5814 48.7361 30.2401 52.8278 35.6489L53.3208 35.2759C49.0437 29.622 41.0578 27.8878 34.7632 31.522L35.0723 32.0574ZM29.2901 49.2393C26.6663 42.982 29.0518 35.5333 35.0723 32.0574L34.7632 31.522C28.4685 35.1562 25.9779 42.939 28.72 49.4783L29.2901 49.2393ZM52.9197 35.1947L28.8505 49.0911L29.1596 49.6265L53.2288 35.7301L52.9197 35.1947Z" fill="white" mask="url(#path-2-outside-1_2037_5033)"/>
<path d="M59.3109 56.5931L53.7769 47.0078L63.3621 41.4738C65.6225 46.8263 63.9447 53.0878 59.3109 56.5931Z" fill="white" stroke="white" stroke-width="3.86364"/>
</g>
<defs>
<clipPath id="clip0_2037_5033">
<rect width="88" height="88" fill="white"/>
</clipPath>
</defs>
</svg>
