<svg width="88" height="88" viewBox="0 0 88 88" fill="none" xmlns="http://www.w3.org/2000/svg">
<g clip-path="url(#clip0_2037_5039)">
<path d="M88 0H0V88H88V0Z" fill="#F68703"/>
<path d="M42.0055 64.716L42.1167 64.5212L41.7812 64.3297C42.1167 64.5212 42.1167 64.5212 42.1168 64.5212L42.1169 64.5209L42.1175 64.5198L42.12 64.5156L42.1297 64.4985L42.1687 64.4302L42.3248 64.1569L42.9495 63.0638C43.5048 62.0923 44.338 60.6351 45.4493 58.6927C47.6721 54.8078 51.0076 48.9819 55.4588 41.2176L55.4668 41.2038L55.4735 41.1893C55.7402 40.6197 55.8113 40.0713 55.509 39.6568C55.2206 39.2614 54.7043 39.1516 54.2221 39.1516H46.7568L48.9476 23.8161L49.0106 23.3751H48.5651H46.3113H46.0869L45.9757 23.57L45.4341 24.5195C39.8734 34.2667 35.6842 41.6099 32.8671 46.5888C32.8543 46.6074 32.8266 46.648 32.8063 46.6792C32.7678 46.7382 32.718 46.8186 32.6663 46.9135C32.5662 47.0971 32.4451 47.3601 32.4012 47.6396C32.3568 47.9228 32.3853 48.2833 32.6696 48.5633C32.9386 48.8281 33.3578 48.9395 33.8929 48.9395H41.3357L39.1449 64.275L39.0819 64.716H39.5274H41.7812H42.0055Z" fill="white" stroke="white" stroke-width="0.772727"/>
</g>
<defs>
<clipPath id="clip0_2037_5039">
<rect width="88" height="88" fill="white"/>
</clipPath>
</defs>
</svg>
