<svg width="88" height="88" viewBox="0 0 88 88" fill="none" xmlns="http://www.w3.org/2000/svg">
<g clip-path="url(#clip0_2037_5042)">
<rect width="88" height="88" fill="#02BB83"/>
<path d="M88 0H0V88H88V0Z" fill="#02BB83"/>
<path d="M57.5929 39.4988C55.1005 38.7954 51.658 38.2887 47.7389 38.0822V34.2451H57.3528H57.7028V33.8951V27V26.65H57.3528H30.2246H29.8746V27V33.8951V34.2451H30.2246H39.8369V38.082C35.9103 38.2876 32.4601 38.7944 29.962 39.4983C28.6803 39.8595 27.6291 40.278 26.8904 40.7471C26.1697 41.2048 25.65 41.7744 25.65 42.4628C25.65 43.1513 26.1697 43.7207 26.8904 44.1783C27.6291 44.6472 28.6803 45.0656 29.962 45.4266C32.4601 46.1304 35.9103 46.6371 39.8369 46.8436V61V61.35H40.1869H47.3872H47.7372V61V46.8384C51.6546 46.6327 55.0976 46.1264 57.5909 45.4231C58.8702 45.0623 59.9196 44.6441 60.6571 44.1754C61.3766 43.7181 61.8955 43.1489 61.8955 42.4611C61.8955 41.7733 61.3771 41.2042 60.6579 40.7468C59.9208 40.278 58.8719 39.8598 57.5929 39.4988ZM47.7321 39.3067C51.1345 39.4814 54.0901 39.8764 56.2086 40.4076C57.3085 40.6834 58.1632 40.9911 58.7348 41.3126C59.0207 41.4734 59.2196 41.6286 59.3434 41.7713C59.4652 41.9116 59.5006 42.0225 59.5006 42.108C59.5006 42.1936 59.4652 42.3045 59.3434 42.4448C59.2196 42.5874 59.0209 42.7427 58.7351 42.9034C58.1636 43.2248 57.3091 43.5325 56.2093 43.8082C54.0153 44.3581 50.9232 44.7617 47.3661 44.9254L47.3635 44.9503L47.3617 44.9278C47.1719 44.9426 46.1381 45.0072 43.8156 45.0072C41.9714 45.0072 40.6629 44.9497 40.2058 44.9272L40.2045 44.9271C36.6406 44.7643 33.5418 44.3611 31.3427 43.811C30.2404 43.5352 29.3838 43.2272 28.8109 42.9053C28.5244 42.7443 28.325 42.5888 28.2009 42.4458C28.0787 42.3052 28.0432 42.194 28.0432 42.108C28.0432 42.022 28.0787 41.9108 28.2009 41.7703C28.325 41.6274 28.5243 41.4719 28.8109 41.3109C29.3838 40.989 30.2404 40.6811 31.3428 40.4052C33.4662 39.8738 36.4286 39.4788 39.8386 39.3033V43.9886V44.3135L40.1625 44.3377C40.6378 44.3732 41.9864 44.4557 43.8476 44.4557C46.0794 44.4557 47.2031 44.3592 47.4156 44.3388L47.7321 44.3084V43.9904V39.3067Z" fill="white" stroke="white" stroke-width="0.7"/>
</g>
<defs>
<clipPath id="clip0_2037_5042">
<rect width="88" height="88" fill="white"/>
</clipPath>
</defs>
</svg>
